<svg xmlns="http://www.w3.org/2000/svg" version="1.1" xmlns:xlink="http://www.w3.org/1999/xlink" width="1000" height="1000"><metadata><rdf:RDF xmlns:rdf="http://www.w3.org/1999/02/22-rdf-syntax-ns#" xmlns:dc="http://purl.org/dc/elements/1.1/"><rdf:Description><dc:creator>RealFaviconGenerator</dc:creator><dc:source>https://realfavicongenerator.net</dc:source></rdf:Description></rdf:RDF></metadata><g clip-path="url(#SvgjsClipPath1163)"><rect width="1000" height="1000" fill="#432dd7"></rect><g transform="matrix(1.0359294877328682,0,0,1.0359294877328682,241.01762806678295,200)"><svg xmlns="http://www.w3.org/2000/svg" id="Layer_2" data-name="Layer 2" viewBox="0 0 500 579.19" width="500" height="579.19"><defs>
    <style>
      .cls-1 {
        fill: #fff;
      }
    </style>
  <clipPath id="SvgjsClipPath1163"><rect width="1000" height="1000" x="0" y="0" rx="300" ry="300"></rect></clipPath></defs><g id="Layer_1-2" data-name="Layer 1">
    <path class="cls-1" d="M184.55,568.84L18.42,403.36c-6.46-6.79-10.02-15.84-10.02-25.53v-17.13c0-20.69,16.48-35.88,37.81-35.88h78.54L20.36,220.1C7.44,207.18,0,188.1,0,165.81v-94.7C0,27.47,27.47,0,70.78,0h216.23c10.34,0,19.39,4.2,25.53,10.34l165.48,165.48c6.46,6.46,10.34,15.2,10.34,25.53v16.49c0,21.33-16.16,36.85-37.81,36.85h-50.74l80.15,80.15c13.9,13.9,20.04,32,20.04,54.3v119.27c0,42.98-27.15,70.78-70.14,70.78h-219.78c-10.02,0-19.07-3.88-25.53-10.35Z"></path>
  </g></svg></g></g></svg>